<svg height="512pt" viewBox="0 0 512 512" width="512pt" xmlns="http://www.w3.org/2000/svg"><path d="m7.5 102.039062c-4.140625 0-7.5-3.359374-7.5-7.5v-61.527343c0-18.203125 14.808594-33.011719 33.011719-33.011719h158.3125c4.140625 0 7.5 3.359375 7.5 7.5 0 4.144531-3.359375 7.503906-7.5 7.503906h-158.3125c-9.929688 0-18.007813 8.078125-18.007813 18.007813v61.527343c0 4.140626-3.359375 7.5-7.503906 7.5zm0 0"/><path d="m32.753906 50.808594c0 12.136718 9.875 22.011718 22.015625 22.011718 12.136719 0 22.011719-9.875 22.011719-22.011718 0-12.140625-9.875-22.015625-22.011719-22.015625-12.140625 0-22.015625 9.875-22.015625 22.015625zm29.027344 0c0 3.863281-3.148438 7.007812-7.011719 7.007812-3.867187 0-7.011719-3.144531-7.011719-7.007812 0-3.867188 3.144532-7.011719 7.011719-7.011719 3.863281 0 7.011719 3.144531 7.011719 7.011719zm0 0"/><path d="m88.804688 50.808594c0 12.136718 9.875 22.011718 22.011718 22.011718 12.136719 0 22.011719-9.875 22.011719-22.011718 0-12.140625-9.875-22.015625-22.011719-22.015625-12.140625 0-22.011718 9.875-22.011718 22.015625zm29.023437 0c0 3.863281-3.148437 7.007812-7.011719 7.007812-3.867187 0-7.011718-3.144531-7.011718-7.007812 0-3.867188 3.144531-7.011719 7.011718-7.011719 3.863282 0 7.011719 3.144531 7.011719 7.011719zm0 0"/><path d="m144.851562 50.808594c0 12.136718 9.875 22.011718 22.011719 22.011718s22.015625-9.875 22.015625-22.011718c0-12.140625-9.878906-22.015625-22.015625-22.015625s-22.011719 9.875-22.011719 22.015625zm29.023438 0c0 3.863281-3.148438 7.007812-7.011719 7.007812-3.867187 0-7.011719-3.144531-7.011719-7.007812 0-3.867188 3.144532-7.011719 7.011719-7.011719 3.863281 0 7.011719 3.144531 7.011719 7.011719zm0 0"/><path d="m478.988281 0h-240.320312c-4.144531 0-7.5 3.359375-7.5 7.5 0 4.144531 3.355469 7.503906 7.5 7.503906h240.320312c9.929688 0 18.011719 8.078125 18.011719 18.007813v54.023437h-481.996094v-54.023437c0-9.929688 8.078125-18.007813 18.007813-18.007813h158.3125c4.140625 0 7.5-3.359375 7.5-7.503906 0-4.140625-3.359375-7.5-7.5-7.5h-158.3125c-18.203125 0-33.011719 14.808594-33.011719 33.011719v445.976562c0 18.203125 14.808594 33.011719 33.011719 33.011719h445.976562c18.203125 0 33.011719-14.808594 33.011719-33.011719v-445.976562c0-18.203125-14.808594-33.011719-33.011719-33.011719zm18.007813 478.988281c0 9.929688-8.078125 18.007813-18.007813 18.007813h-445.976562c-9.929688 0-18.007813-8.078125-18.007813-18.007813v-376.949219h481.992188zm0 0"/><path d="m40.257812 183.363281c4.140626 0 7.5-3.359375 7.5-7.503906v-10.988281c0-3.800782 1.09375-7.476563 3.167969-10.632813 2.273438-3.464843 1.3125-8.113281-2.152343-10.390625-3.460938-2.273437-8.113282-1.308594-10.386719 2.152344-3.683594 5.609375-5.632813 12.136719-5.632813 18.871094v10.988281c0 4.144531 3.359375 7.503906 7.503906 7.503906zm0 0"/><path d="m61.660156 464.566406c1.808594.292969 3.660156.4375 5.503906.4375h22.277344c4.140625 0 7.5-3.359375 7.5-7.5 0-4.144531-3.359375-7.5-7.5-7.5h-22.277344c-1.046874 0-2.097656-.085937-3.117187-.25-4.09375-.660156-7.941406 2.121094-8.601563 6.210938-.65625 4.09375 2.125 7.941406 6.214844 8.601562zm0 0"/><path d="m67.164062 145.464844h26.550782c4.140625 0 7.5-3.359375 7.5-7.503906 0-4.140626-3.359375-7.5-7.5-7.5h-26.609375c-4.140625 0-7.472657 3.359374-7.472657 7.5 0 4.144531 3.386719 7.503906 7.53125 7.503906zm0 0"/><path d="m116.046875 465.003906h26.609375c4.144531 0 7.5-3.359375 7.5-7.5 0-4.144531-3.355469-7.5-7.5-7.5h-26.609375c-4.140625 0-7.5 3.355469-7.5 7.5 0 4.140625 3.359375 7.5 7.5 7.5zm0 0"/><path d="m120.324219 145.464844h26.605469c4.144531 0 7.5-3.359375 7.5-7.503906 0-4.140626-3.355469-7.5-7.5-7.5h-26.605469c-4.144531 0-7.503907 3.359374-7.503907 7.5 0 4.144531 3.359376 7.503906 7.503907 7.503906zm0 0"/><path d="m40.257812 236.578125c4.140626 0 7.5-3.359375 7.5-7.5v-26.609375c0-4.140625-3.359374-7.5-7.5-7.5-4.144531 0-7.503906 3.359375-7.503906 7.5v26.609375c0 4.140625 3.359375 7.5 7.503906 7.5zm0 0"/><path d="m42.609375 449.109375c1.023437 0 2.070313-.210937 3.066406-.660156 3.78125-1.695313 5.46875-6.136719 3.773438-9.917969-1.125-2.496094-1.691407-5.167969-1.691407-7.9375v-15.261719c0-4.144531-3.359374-7.5-7.5-7.5-4.144531 0-7.503906 3.355469-7.503906 7.5v15.261719c0 4.902344 1.011719 9.640625 3.007813 14.082031 1.246093 2.785157 3.984375 4.433594 6.847656 4.433594zm0 0"/><path d="m169.265625 465.003906h26.605469c4.144531 0 7.503906-3.359375 7.503906-7.5 0-4.144531-3.359375-7.5-7.503906-7.5h-26.605469c-4.144531 0-7.503906 3.355469-7.503906 7.5 0 4.140625 3.359375 7.5 7.503906 7.5zm0 0"/><path d="m40.257812 289.792969c4.140626 0 7.5-3.355469 7.5-7.5v-26.609375c0-4.140625-3.359374-7.5-7.5-7.5-4.144531 0-7.503906 3.359375-7.503906 7.5v26.609375c0 4.144531 3.359375 7.5 7.503906 7.5zm0 0"/><path d="m40.257812 396.226562c4.140626 0 7.5-3.359374 7.5-7.5v-26.609374c0-4.144532-3.359374-7.503907-7.5-7.503907-4.144531 0-7.503906 3.359375-7.503906 7.503907v26.609374c0 4.140626 3.359375 7.5 7.503906 7.5zm0 0"/><path d="m40.257812 343.011719c4.140626 0 7.5-3.359375 7.5-7.503907v-26.605468c0-4.144532-3.359374-7.503906-7.5-7.503906-4.144531 0-7.503906 3.359374-7.503906 7.503906v26.605468c0 4.144532 3.359375 7.503907 7.503906 7.503907zm0 0"/><path d="m275.996094 252.398438c-4.144532 0-7.503906 3.359374-7.503906 7.5v26.609374c0 4.144532 3.359374 7.503907 7.503906 7.503907 4.144531 0 7.5-3.359375 7.5-7.503907v-26.609374c0-4.140626-3.355469-7.5-7.5-7.5zm0 0"/><path d="m275.996094 199.183594c-4.144532 0-7.503906 3.359375-7.503906 7.5v26.609375c0 4.144531 3.359374 7.5 7.503906 7.5 4.144531 0 7.5-3.355469 7.5-7.5v-26.609375c0-4.140625-3.355469-7.5-7.5-7.5zm0 0"/><path d="m275.996094 305.617188c-4.144532 0-7.503906 3.355468-7.503906 7.5v26.609374c0 4.140626 3.359374 7.5 7.503906 7.5 4.144531 0 7.5-3.359374 7.5-7.5v-26.609374c0-4.144532-3.355469-7.5-7.5-7.5zm0 0"/><path d="m268.492188 164.871094v15.207031c0 4.140625 3.359374 7.5 7.503906 7.5 4.144531 0 7.5-3.359375 7.5-7.5v-15.207031c0-4.929688-1.019532-9.691406-3.035156-14.148438-1.707032-3.777344-6.152344-5.457031-9.925782-3.75-3.773437 1.703125-5.453125 6.148438-3.746094 9.921875 1.128907 2.507813 1.703126 5.191407 1.703126 7.976563zm0 0"/><path d="m275.996094 358.832031c-4.144532 0-7.503906 3.359375-7.503906 7.5v26.609375c0 4.144532 3.359374 7.5 7.503906 7.5 4.144531 0 7.5-3.355468 7.5-7.5v-26.609375c0-4.144531-3.355469-7.5-7.5-7.5zm0 0"/><path d="m226.753906 145.464844h22.335938c1.03125 0 2.066406.082031 3.074218.242187.398438.0625.796876.09375 1.1875.09375 3.625 0 6.8125-2.632812 7.398438-6.324219.652344-4.089843-2.136719-7.9375-6.226562-8.585937-1.785157-.285156-3.613282-.429687-5.433594-.429687h-22.335938c-4.140625 0-7.5 3.359374-7.5 7.5 0 4.144531 3.359375 7.503906 7.5 7.503906zm0 0"/><path d="m173.539062 145.464844h26.609376c4.140624 0 7.5-3.359375 7.5-7.503906 0-4.140626-3.359376-7.5-7.5-7.5h-26.609376c-4.144531 0-7.5 3.359374-7.5 7.5 0 4.144531 3.355469 7.503906 7.5 7.503906zm0 0"/><path d="m222.480469 465.003906h26.722656c4.140625 0 7.5-3.359375 7.5-7.5 0-4.144531-3.359375-7.5-7.5-7.5h-26.722656c-4.144531 0-7.503907 3.355469-7.503907 7.5 0 4.140625 3.359376 7.5 7.503907 7.5zm0 0"/><path d="m267.523438 451.578125c1.265624.828125 2.6875 1.226563 4.097656 1.226563 2.445312 0 4.847656-1.199219 6.285156-3.398438 3.65625-5.59375 5.589844-12.097656 5.589844-18.808594v-11.046875c0-4.144531-3.355469-7.503906-7.5-7.503906-4.144532 0-7.5 3.359375-7.5 7.503906v11.046875c0 3.785156-1.089844 7.453125-3.148438 10.597656-2.265625 3.46875-1.292968 8.117188 2.175782 10.382813zm0 0"/><path d="m318.941406 267.234375c.453125.511719.964844.9375 1.511719 1.296875 6.203125 6.027344 14.65625 9.75 23.964844 9.75h20.605469c4.140624 0 7.5-3.359375 7.5-7.5 0-4.144531-3.359376-7.503906-7.5-7.503906h-20.605469c-2.785157 0-5.421875-.597656-7.816407-1.65625l53.226563-47.113282 53.3125 47.183594c-2.355469 1.015625-4.949219 1.585938-7.671875 1.585938h-25.601562c-4.144532 0-7.5 3.359375-7.5 7.503906 0 4.140625 3.355468 7.5 7.5 7.5h25.601562c9.707031 0 18.480469-4.046875 24.742188-10.535156.175781-.160156.347656-.332032.507812-.511719.03125-.035156.058594-.078125.089844-.113281 5.625-6.128906 9.066406-14.292969 9.066406-23.246094v-79.003906c0-18.972656-15.433594-34.410156-34.40625-34.410156h-91.050781c-9.804688 0-18.65625 4.128906-24.929688 10.730468-.1875.171875-.371093.359375-.546875.558594-.074218.078125-.132812.167969-.203125.25-5.421875 6.082031-8.726562 14.097656-8.726562 22.867188v79.003906c0 8.363281 3 16.035156 7.976562 22.003906.261719.476562.578125.933594.953125 1.359375zm135.933594-102.363281v79c0 2.46875-.480469 4.824218-1.328125 6.996094l-52.398437-46.375 52.464843-46.4375c.800781 2.125 1.261719 4.414062 1.261719 6.816406zm-110.457031-19.40625h91.050781c2.792969 0 5.441406.605468 7.84375 1.671875l-53.484375 47.335937-53.40625-47.265625c2.445313-1.109375 5.144531-1.742187 7.996094-1.742187zm-19.40625 19.40625c0-2.34375.4375-4.582032 1.203125-6.664063l52.296875 46.285157-52.230469 46.226562c-.804688-2.132812-1.269531-4.433594-1.269531-6.847656zm0 0"/><path d="m319.050781 453.835938c.164063.1875.339844.359374.519531.523437 6.265626 6.550781 15.085938 10.644531 24.847657 10.644531h91.050781c9.761719 0 18.582031-4.09375 24.851562-10.648437.175782-.164063.347657-.332031.511719-.519531.03125-.035157.058594-.078126.089844-.113282 5.558594-6.113281 8.953125-14.230468 8.953125-23.128906v-79c0-8.898438-3.390625-17.015625-8.953125-23.128906-.03125-.035156-.058594-.078125-.089844-.113282-.175781-.199218-.363281-.386718-.554687-.5625-6.265625-6.527343-15.066406-10.605468-24.808594-10.605468h-91.050781c-9.742188 0-18.546875 4.078125-24.8125 10.605468-.191407.175782-.375.363282-.554688.5625-.03125.035157-.058593.078126-.089843.113282-5.558594 6.113281-8.953126 14.230468-8.953126 23.128906v79c0 8.898438 3.394532 17.015625 8.953126 23.128906.03125.039063.058593.078125.089843.113282zm116.417969-3.832032h-91.050781c-2.789063 0-5.433594-.605468-7.832031-1.667968l53.355468-47.222657 53.359375 47.222657c-2.398437 1.0625-5.042969 1.667968-7.832031 1.667968zm19.40625-98.410156v79.003906c0 2.40625-.460938 4.699219-1.265625 6.828125l-52.347656-46.332031 52.347656-46.328125c.804687 2.125 1.265625 4.421875 1.265625 6.828125zm-110.457031-19.40625h91.050781c2.785156 0 5.433594.601562 7.832031 1.664062l-53.359375 47.226563-53.355468-47.226563c2.398437-1.0625 5.042968-1.664062 7.832031-1.664062zm-19.40625 19.40625c0-2.40625.460937-4.703125 1.265625-6.832031l52.347656 46.332031-52.347656 46.332031c-.804688-2.128906-1.265625-4.421875-1.265625-6.832031zm0 0"/></svg>