<svg width="115" height="115" viewBox="0 0 115 115" fill="none" xmlns="http://www.w3.org/2000/svg">
<circle cx="57.5" cy="57.5" r="56.5" fill="#0F1624" stroke="#A6D27B" stroke-width="2"/>
<path d="M29.256 38.312C28.632 38.312 27.96 38.288 27.24 38.24C26.52 38.192 25.84 38.136 25.2 38.072C24.576 38.024 24.056 37.976 23.64 37.928C23.24 37.88 23.04 37.856 23.04 37.856L23.112 30.104L22.992 21.152C22.992 21.152 23.192 21.136 23.592 21.104C23.992 21.072 24.504 21.032 25.128 20.984C25.752 20.936 26.416 20.896 27.12 20.864C27.824 20.832 28.48 20.816 29.088 20.816C30.144 20.816 31.104 20.96 31.968 21.248C32.832 21.536 33.52 22.032 34.032 22.736C34.544 23.424 34.8 24.376 34.8 25.592C34.8 26.552 34.584 27.312 34.152 27.872C33.72 28.416 33.28 28.808 32.832 29.048V29.192C33.488 29.464 34.048 29.88 34.512 30.44C34.992 30.984 35.232 31.776 35.232 32.816C35.232 33.92 35.064 34.832 34.728 35.552C34.392 36.256 33.936 36.808 33.36 37.208C32.784 37.608 32.144 37.888 31.44 38.048C30.736 38.224 30.008 38.312 29.256 38.312ZM29.184 27.776C29.888 27.776 30.36 27.624 30.6 27.32C30.84 27 30.96 26.488 30.96 25.784C30.96 25.016 30.808 24.488 30.504 24.2C30.216 23.912 29.72 23.768 29.016 23.768C28.504 23.768 28.08 23.776 27.744 23.792C27.408 23.808 27.08 23.832 26.76 23.864V27.776H29.184ZM29.28 35.288C30.128 35.288 30.68 35.096 30.936 34.712C31.192 34.312 31.32 33.696 31.32 32.864C31.32 32.016 31.112 31.448 30.696 31.16C30.28 30.856 29.712 30.704 28.992 30.704H26.784L26.808 35.144C27.048 35.176 27.392 35.208 27.84 35.24C28.304 35.272 28.784 35.288 29.28 35.288ZM38.6346 38V24.446H40.1286V38H38.6346ZM47.2192 38.234C46.2232 38.234 45.4372 38.012 44.8612 37.568C44.2972 37.124 43.8952 36.494 43.6552 35.678C43.4152 34.862 43.2952 33.89 43.2952 32.762C43.2952 31.634 43.4152 30.662 43.6552 29.846C43.8952 29.03 44.2972 28.4 44.8612 27.956C45.4372 27.512 46.2232 27.29 47.2192 27.29C48.2152 27.29 48.9952 27.512 49.5592 27.956C50.1352 28.4 50.5432 29.03 50.7832 29.846C51.0232 30.662 51.1432 31.634 51.1432 32.762C51.1432 33.89 51.0232 34.862 50.7832 35.678C50.5432 36.494 50.1352 37.124 49.5592 37.568C48.9952 38.012 48.2152 38.234 47.2192 38.234ZM47.2192 36.938C47.6752 36.938 48.0532 36.884 48.3532 36.776C48.6652 36.668 48.9112 36.47 49.0912 36.182C49.2832 35.894 49.4152 35.474 49.4872 34.922C49.5712 34.37 49.6132 33.65 49.6132 32.762C49.6132 31.874 49.5712 31.154 49.4872 30.602C49.4152 30.05 49.2832 29.63 49.0912 29.342C48.9112 29.042 48.6652 28.844 48.3532 28.748C48.0532 28.64 47.6752 28.586 47.2192 28.586C46.7632 28.586 46.3792 28.64 46.0672 28.748C45.7672 28.844 45.5212 29.042 45.3292 29.342C45.1492 29.63 45.0172 30.05 44.9332 30.602C44.8492 31.154 44.8072 31.874 44.8072 32.762C44.8072 33.65 44.8492 34.37 44.9332 34.922C45.0172 35.474 45.1492 35.894 45.3292 36.182C45.5212 36.47 45.7672 36.668 46.0672 36.776C46.3792 36.884 46.7632 36.938 47.2192 36.938ZM52.7123 38L55.8443 32.546L52.7483 27.524H54.4403L56.7263 31.718H56.8163L59.0483 27.524H60.7403L57.6443 32.582L60.7943 38H59.0483L56.7623 33.482H56.6723L54.4403 38H52.7123ZM63.39 40.988L64.794 36.902L61.446 27.524H63.048L65.46 35.174H65.532L67.944 27.524H69.546L66.018 37.334L64.974 40.988H63.39ZM46.5814 66.252C45.7534 66.252 45.0214 66.078 44.3854 65.73C43.7614 65.37 43.2754 64.788 42.9274 63.984C42.5794 63.168 42.4054 62.088 42.4054 60.744C42.4054 59.34 42.5854 58.242 42.9454 57.45C43.3174 56.658 43.8154 56.1 44.4394 55.776C45.0634 55.44 45.7654 55.272 46.5454 55.272C47.3254 55.272 47.9854 55.428 48.5254 55.74C49.0774 56.052 49.4974 56.574 49.7854 57.306C50.0734 58.026 50.2174 58.998 50.2174 60.222V61.356H43.9894C43.9534 62.088 43.9834 62.67 44.0794 63.102C44.1754 63.522 44.2894 63.846 44.4214 64.074C44.5534 64.29 44.6674 64.44 44.7634 64.524C45.0874 64.812 45.5854 64.956 46.2574 64.956C46.7254 64.956 47.1754 64.914 47.6074 64.83C48.0394 64.734 48.4234 64.632 48.7594 64.524C49.1074 64.404 49.3714 64.32 49.5514 64.272L49.9294 65.478C49.8214 65.526 49.6114 65.616 49.2994 65.748C48.9874 65.868 48.5974 65.982 48.1294 66.09C47.6734 66.198 47.1574 66.252 46.5814 66.252ZM44.5654 57.288C44.1814 57.804 43.9894 58.758 43.9894 60.15L48.6874 60.06C48.6874 59.364 48.6574 58.77 48.5974 58.278C48.5494 57.774 48.4414 57.384 48.2734 57.108C48.1894 56.976 48.0454 56.856 47.8414 56.748C47.6374 56.628 47.2414 56.568 46.6534 56.568C46.0414 56.568 45.5794 56.634 45.2674 56.766C44.9674 56.898 44.7334 57.072 44.5654 57.288ZM56.8826 66.234C56.5586 66.234 56.1566 66.198 55.6766 66.126C55.2086 66.066 54.7346 65.988 54.2546 65.892C53.7746 65.784 53.3606 65.67 53.0126 65.55V52.446H54.5066V55.686C54.8066 55.614 55.2026 55.53 55.6946 55.434C56.1866 55.338 56.6966 55.29 57.2246 55.29C58.2806 55.29 59.0906 55.71 59.6546 56.55C60.2186 57.378 60.5006 58.722 60.5006 60.582C60.5006 61.734 60.3986 62.682 60.1946 63.426C59.9906 64.158 59.7146 64.728 59.3666 65.136C59.0186 65.544 58.6286 65.832 58.1966 66C57.7766 66.156 57.3386 66.234 56.8826 66.234ZM56.8826 64.902C57.2066 64.902 57.4586 64.884 57.6386 64.848C57.8306 64.8 57.9866 64.722 58.1066 64.614C58.2146 64.506 58.3346 64.314 58.4666 64.038C58.5986 63.762 58.7066 63.33 58.7906 62.742C58.8866 62.142 58.9346 61.326 58.9346 60.294C58.9346 59.262 58.8806 58.476 58.7726 57.936C58.6766 57.396 58.5386 57.054 58.3586 56.91C58.1066 56.718 57.6806 56.622 57.0806 56.622C56.4686 56.622 55.9406 56.682 55.4966 56.802C55.0646 56.922 54.7346 57.024 54.5066 57.108V64.614C54.7106 64.662 55.0046 64.722 55.3886 64.794C55.7726 64.866 56.2706 64.902 56.8826 64.902ZM40.1595 94.252C39.3315 94.252 38.5995 94.078 37.9635 93.73C37.3395 93.37 36.8535 92.788 36.5055 91.984C36.1575 91.168 35.9835 90.088 35.9835 88.744C35.9835 87.34 36.1635 86.242 36.5235 85.45C36.8955 84.658 37.3935 84.1 38.0175 83.776C38.6415 83.44 39.3435 83.272 40.1235 83.272C40.9035 83.272 41.5635 83.428 42.1035 83.74C42.6555 84.052 43.0755 84.574 43.3635 85.306C43.6515 86.026 43.7955 86.998 43.7955 88.222V89.356H37.5675C37.5315 90.088 37.5615 90.67 37.6575 91.102C37.7535 91.522 37.8675 91.846 37.9995 92.074C38.1315 92.29 38.2455 92.44 38.3415 92.524C38.6655 92.812 39.1635 92.956 39.8355 92.956C40.3035 92.956 40.7535 92.914 41.1855 92.83C41.6175 92.734 42.0015 92.632 42.3375 92.524C42.6855 92.404 42.9495 92.32 43.1295 92.272L43.5075 93.478C43.3995 93.526 43.1895 93.616 42.8775 93.748C42.5655 93.868 42.1755 93.982 41.7075 94.09C41.2515 94.198 40.7355 94.252 40.1595 94.252ZM38.1435 85.288C37.7595 85.804 37.5675 86.758 37.5675 88.15L42.2655 88.06C42.2655 87.364 42.2355 86.77 42.1755 86.278C42.1275 85.774 42.0195 85.384 41.8515 85.108C41.7675 84.976 41.6235 84.856 41.4195 84.748C41.2155 84.628 40.8195 84.568 40.2315 84.568C39.6195 84.568 39.1575 84.634 38.8455 84.766C38.5455 84.898 38.3115 85.072 38.1435 85.288ZM46.7887 94V83.524H47.7427L47.9407 84.586H48.0487C48.0487 84.586 48.1387 84.52 48.3187 84.388C48.5107 84.256 48.7567 84.106 49.0567 83.938C49.3567 83.77 49.6747 83.62 50.0107 83.488C50.3587 83.356 50.6827 83.29 50.9827 83.29C51.1627 83.29 51.3307 83.308 51.4867 83.344C51.6427 83.368 51.7207 83.38 51.7207 83.38L51.5947 84.82C51.5947 84.82 51.5167 84.814 51.3607 84.802C51.2047 84.79 51.0607 84.784 50.9287 84.784C50.5927 84.784 50.2507 84.832 49.9027 84.928C49.5667 85.024 49.2547 85.144 48.9667 85.288C48.6787 85.432 48.4507 85.57 48.2827 85.702V94H46.7887ZM55.1026 94L52.0606 83.524H53.6626L56.0206 92.722H56.1286L58.4686 83.524H60.0706L57.0466 94H55.1026ZM62.08 81.742V80.212H63.916V81.742H62.08ZM62.242 94V83.524H63.736V94H62.242ZM71.0426 94.234C70.2266 94.234 69.5066 94.048 68.8826 93.676C68.2586 93.304 67.7726 92.716 67.4246 91.912C67.0766 91.096 66.9026 90.034 66.9026 88.726C66.9026 87.658 67.0166 86.77 67.2446 86.062C67.4846 85.354 67.8086 84.802 68.2166 84.406C68.6246 83.998 69.1046 83.71 69.6566 83.542C70.2086 83.374 70.7966 83.29 71.4206 83.29C71.8766 83.29 72.3386 83.32 72.8066 83.38C73.2866 83.44 73.6766 83.506 73.9766 83.578L73.7966 84.838C73.5686 84.814 73.2086 84.772 72.7166 84.712C72.2246 84.64 71.6966 84.604 71.1326 84.604C70.6886 84.604 70.3106 84.64 69.9986 84.712C69.6986 84.784 69.4646 84.904 69.2966 85.072C69.0686 85.324 68.8706 85.786 68.7026 86.458C68.5466 87.118 68.4686 87.91 68.4686 88.834C68.4686 89.686 68.5346 90.376 68.6666 90.904C68.7986 91.42 68.9546 91.816 69.1346 92.092C69.3146 92.356 69.4766 92.542 69.6206 92.65C69.7166 92.722 69.8426 92.788 69.9986 92.848C70.1666 92.908 70.4006 92.938 70.7006 92.938C71.0486 92.938 71.4026 92.896 71.7626 92.812C72.1226 92.728 72.4526 92.632 72.7526 92.524C73.0526 92.416 73.2926 92.32 73.4726 92.236C73.6646 92.152 73.7606 92.11 73.7606 92.11L74.2286 93.28C74.2286 93.28 74.0966 93.358 73.8326 93.514C73.5686 93.67 73.1966 93.832 72.7166 94C72.2366 94.156 71.6786 94.234 71.0426 94.234ZM80.431 94.252C79.603 94.252 78.871 94.078 78.235 93.73C77.611 93.37 77.125 92.788 76.777 91.984C76.429 91.168 76.255 90.088 76.255 88.744C76.255 87.34 76.435 86.242 76.795 85.45C77.167 84.658 77.665 84.1 78.289 83.776C78.913 83.44 79.615 83.272 80.395 83.272C81.175 83.272 81.835 83.428 82.375 83.74C82.927 84.052 83.347 84.574 83.635 85.306C83.923 86.026 84.067 86.998 84.067 88.222V89.356H77.839C77.803 90.088 77.833 90.67 77.929 91.102C78.025 91.522 78.139 91.846 78.271 92.074C78.403 92.29 78.517 92.44 78.613 92.524C78.937 92.812 79.435 92.956 80.107 92.956C80.575 92.956 81.025 92.914 81.457 92.83C81.889 92.734 82.273 92.632 82.609 92.524C82.957 92.404 83.221 92.32 83.401 92.272L83.779 93.478C83.671 93.526 83.461 93.616 83.149 93.748C82.837 93.868 82.447 93.982 81.979 94.09C81.523 94.198 81.007 94.252 80.431 94.252ZM78.415 85.288C78.031 85.804 77.839 86.758 77.839 88.15L82.537 88.06C82.537 87.364 82.507 86.77 82.447 86.278C82.399 85.774 82.291 85.384 82.123 85.108C82.039 84.976 81.895 84.856 81.691 84.748C81.487 84.628 81.091 84.568 80.503 84.568C79.891 84.568 79.429 84.634 79.117 84.766C78.817 84.898 78.583 85.072 78.415 85.288ZM89.6522 94.234C89.0642 94.234 88.5062 94.162 87.9782 94.018C87.4622 93.874 87.0422 93.73 86.7182 93.586C86.3942 93.442 86.2322 93.37 86.2322 93.37L86.6102 92.092C86.6102 92.092 86.7002 92.134 86.8802 92.218C87.0722 92.302 87.3242 92.404 87.6362 92.524C87.9482 92.632 88.3022 92.728 88.6982 92.812C89.0942 92.896 89.5022 92.938 89.9222 92.938C90.1622 92.938 90.3842 92.92 90.5882 92.884C90.7922 92.836 90.9542 92.758 91.0742 92.65C91.2062 92.53 91.3262 92.35 91.4342 92.11C91.5422 91.87 91.5962 91.582 91.5962 91.246C91.5962 90.742 91.4762 90.358 91.2362 90.094C90.9962 89.83 90.6842 89.626 90.3002 89.482C89.9162 89.338 89.5082 89.206 89.0762 89.086C88.7282 88.99 88.3862 88.882 88.0502 88.762C87.7142 88.642 87.4082 88.48 87.1322 88.276C86.8682 88.072 86.6522 87.802 86.4842 87.466C86.3282 87.118 86.2502 86.674 86.2502 86.134C86.2502 85.282 86.5082 84.598 87.0242 84.082C87.5522 83.554 88.4342 83.29 89.6702 83.29C90.2942 83.29 90.8762 83.344 91.4162 83.452C91.9562 83.56 92.3342 83.65 92.5502 83.722L92.3162 84.982C92.3162 84.982 92.1722 84.952 91.8842 84.892C91.6082 84.82 91.2482 84.754 90.8042 84.694C90.3602 84.622 89.8862 84.586 89.3822 84.586C89.0222 84.586 88.7342 84.61 88.5182 84.658C88.3022 84.694 88.1402 84.754 88.0322 84.838C87.9242 84.922 87.8342 85.06 87.7622 85.252C87.6902 85.432 87.6542 85.648 87.6542 85.9C87.6542 86.404 87.7922 86.782 88.0682 87.034C88.3562 87.286 88.7162 87.478 89.1482 87.61C89.5922 87.742 90.0482 87.88 90.5162 88.024C90.9482 88.144 91.3562 88.306 91.7402 88.51C92.1362 88.714 92.4542 89.008 92.6942 89.392C92.9342 89.776 93.0542 90.298 93.0542 90.958C93.0542 91.93 92.7602 92.722 92.1722 93.334C91.5962 93.934 90.7562 94.234 89.6522 94.234Z" fill="white"/>
<path d="M24.312 66L21.816 49.128H25.608L26.832 62.136H26.976L28.848 53.136H33.264L35.136 62.136H35.28L36.504 49.128H40.296L37.8 66H33.096L31.128 56.712H30.984L29.016 66H24.312Z" fill="#F3CBA8"/>
<path d="M27.672 94.312C26.904 94.312 26.168 94.232 25.464 94.072C24.76 93.928 24.128 93.76 23.568 93.568C23.024 93.376 22.592 93.208 22.272 93.064C21.952 92.904 21.792 92.824 21.792 92.824C21.792 92.824 21.84 92.68 21.936 92.392C22.032 92.088 22.136 91.744 22.248 91.36C22.376 90.96 22.488 90.616 22.584 90.328C22.68 90.04 22.728 89.896 22.728 89.896C22.728 89.896 22.888 89.96 23.208 90.088C23.544 90.2 23.976 90.336 24.504 90.496C25.048 90.64 25.632 90.776 26.256 90.904C26.896 91.016 27.528 91.072 28.152 91.072C28.456 91.072 28.696 91.048 28.872 91C29.048 90.936 29.184 90.872 29.28 90.808C29.456 90.696 29.592 90.52 29.688 90.28C29.8 90.04 29.856 89.696 29.856 89.248C29.856 88.848 29.696 88.512 29.376 88.24C29.056 87.952 28.64 87.688 28.128 87.448C27.616 87.208 27.064 86.952 26.472 86.68C25.96 86.44 25.448 86.192 24.936 85.936C24.424 85.664 23.96 85.344 23.544 84.976C23.128 84.608 22.792 84.152 22.536 83.608C22.28 83.048 22.152 82.36 22.152 81.544C22.152 80.664 22.368 79.872 22.8 79.168C23.248 78.448 23.912 77.88 24.792 77.464C25.688 77.032 26.792 76.816 28.104 76.816C28.68 76.816 29.256 76.856 29.832 76.936C30.424 77.016 30.968 77.112 31.464 77.224C31.96 77.32 32.352 77.408 32.64 77.488C32.944 77.568 33.096 77.608 33.096 77.608L32.496 80.608C32.496 80.608 32.336 80.584 32.016 80.536C31.712 80.472 31.312 80.408 30.816 80.344C30.32 80.264 29.792 80.2 29.232 80.152C28.672 80.088 28.144 80.056 27.648 80.056C27.344 80.056 27.104 80.08 26.928 80.128C26.752 80.176 26.6 80.24 26.472 80.32C26.36 80.4 26.248 80.528 26.136 80.704C26.04 80.864 25.992 81.144 25.992 81.544C25.992 82.008 26.232 82.4 26.712 82.72C27.208 83.04 27.8 83.36 28.488 83.68C29.032 83.936 29.6 84.2 30.192 84.472C30.8 84.744 31.368 85.072 31.896 85.456C32.424 85.84 32.856 86.328 33.192 86.92C33.528 87.496 33.696 88.224 33.696 89.104C33.696 90.144 33.44 91.056 32.928 91.84C32.432 92.624 31.728 93.232 30.816 93.664C29.92 94.096 28.872 94.312 27.672 94.312Z" fill="#A6D27B"/>
</svg>
