<svg width="97" height="90" viewBox="0 0 97 90" fill="none" xmlns="http://www.w3.org/2000/svg">
<rect x="1" y="1" width="88" height="88" rx="5" fill="#0F1624" stroke="#A6D27B" stroke-width="2"/>
<path d="M16.256 26.312C15.632 26.312 14.96 26.288 14.24 26.24C13.52 26.192 12.84 26.136 12.2 26.072C11.576 26.024 11.056 25.976 10.64 25.928C10.24 25.88 10.04 25.856 10.04 25.856L10.112 18.104L9.992 9.152C9.992 9.152 10.192 9.136 10.592 9.104C10.992 9.072 11.504 9.032 12.128 8.984C12.752 8.936 13.416 8.896 14.12 8.864C14.824 8.832 15.48 8.816 16.088 8.816C17.144 8.816 18.104 8.96 18.968 9.248C19.832 9.536 20.52 10.032 21.032 10.736C21.544 11.424 21.8 12.376 21.8 13.592C21.8 14.552 21.584 15.312 21.152 15.872C20.72 16.416 20.28 16.808 19.832 17.048V17.192C20.488 17.464 21.048 17.88 21.512 18.44C21.992 18.984 22.232 19.776 22.232 20.816C22.232 21.92 22.064 22.832 21.728 23.552C21.392 24.256 20.936 24.808 20.36 25.208C19.784 25.608 19.144 25.888 18.44 26.048C17.736 26.224 17.008 26.312 16.256 26.312ZM16.184 15.776C16.888 15.776 17.36 15.624 17.6 15.32C17.84 15 17.96 14.488 17.96 13.784C17.96 13.016 17.808 12.488 17.504 12.2C17.216 11.912 16.72 11.768 16.016 11.768C15.504 11.768 15.08 11.776 14.744 11.792C14.408 11.808 14.08 11.832 13.76 11.864V15.776H16.184ZM16.28 23.288C17.128 23.288 17.68 23.096 17.936 22.712C18.192 22.312 18.32 21.696 18.32 20.864C18.32 20.016 18.112 19.448 17.696 19.16C17.28 18.856 16.712 18.704 15.992 18.704H13.784L13.808 23.144C14.048 23.176 14.392 23.208 14.84 23.24C15.304 23.272 15.784 23.288 16.28 23.288ZM25.6346 26V12.446H27.1286V26H25.6346ZM34.2192 26.234C33.2232 26.234 32.4372 26.012 31.8612 25.568C31.2972 25.124 30.8952 24.494 30.6552 23.678C30.4152 22.862 30.2952 21.89 30.2952 20.762C30.2952 19.634 30.4152 18.662 30.6552 17.846C30.8952 17.03 31.2972 16.4 31.8612 15.956C32.4372 15.512 33.2232 15.29 34.2192 15.29C35.2152 15.29 35.9952 15.512 36.5592 15.956C37.1352 16.4 37.5432 17.03 37.7832 17.846C38.0232 18.662 38.1432 19.634 38.1432 20.762C38.1432 21.89 38.0232 22.862 37.7832 23.678C37.5432 24.494 37.1352 25.124 36.5592 25.568C35.9952 26.012 35.2152 26.234 34.2192 26.234ZM34.2192 24.938C34.6752 24.938 35.0532 24.884 35.3532 24.776C35.6652 24.668 35.9112 24.47 36.0912 24.182C36.2832 23.894 36.4152 23.474 36.4872 22.922C36.5712 22.37 36.6132 21.65 36.6132 20.762C36.6132 19.874 36.5712 19.154 36.4872 18.602C36.4152 18.05 36.2832 17.63 36.0912 17.342C35.9112 17.042 35.6652 16.844 35.3532 16.748C35.0532 16.64 34.6752 16.586 34.2192 16.586C33.7632 16.586 33.3792 16.64 33.0672 16.748C32.7672 16.844 32.5212 17.042 32.3292 17.342C32.1492 17.63 32.0172 18.05 31.9332 18.602C31.8492 19.154 31.8072 19.874 31.8072 20.762C31.8072 21.65 31.8492 22.37 31.9332 22.922C32.0172 23.474 32.1492 23.894 32.3292 24.182C32.5212 24.47 32.7672 24.668 33.0672 24.776C33.3792 24.884 33.7632 24.938 34.2192 24.938ZM39.7123 26L42.8443 20.546L39.7483 15.524H41.4403L43.7263 19.718H43.8163L46.0483 15.524H47.7403L44.6443 20.582L47.7943 26H46.0483L43.7623 21.482H43.6723L41.4403 26H39.7123ZM50.39 28.988L51.794 24.902L48.446 15.524H50.048L52.46 23.174H52.532L54.944 15.524H56.546L53.018 25.334L51.974 28.988H50.39ZM33.5814 54.252C32.7534 54.252 32.0214 54.078 31.3854 53.73C30.7614 53.37 30.2754 52.788 29.9274 51.984C29.5794 51.168 29.4054 50.088 29.4054 48.744C29.4054 47.34 29.5854 46.242 29.9454 45.45C30.3174 44.658 30.8154 44.1 31.4394 43.776C32.0634 43.44 32.7654 43.272 33.5454 43.272C34.3254 43.272 34.9854 43.428 35.5254 43.74C36.0774 44.052 36.4974 44.574 36.7854 45.306C37.0734 46.026 37.2174 46.998 37.2174 48.222V49.356H30.9894C30.9534 50.088 30.9834 50.67 31.0794 51.102C31.1754 51.522 31.2894 51.846 31.4214 52.074C31.5534 52.29 31.6674 52.44 31.7634 52.524C32.0874 52.812 32.5854 52.956 33.2574 52.956C33.7254 52.956 34.1754 52.914 34.6074 52.83C35.0394 52.734 35.4234 52.632 35.7594 52.524C36.1074 52.404 36.3714 52.32 36.5514 52.272L36.9294 53.478C36.8214 53.526 36.6114 53.616 36.2994 53.748C35.9874 53.868 35.5974 53.982 35.1294 54.09C34.6734 54.198 34.1574 54.252 33.5814 54.252ZM31.5654 45.288C31.1814 45.804 30.9894 46.758 30.9894 48.15L35.6874 48.06C35.6874 47.364 35.6574 46.77 35.5974 46.278C35.5494 45.774 35.4414 45.384 35.2734 45.108C35.1894 44.976 35.0454 44.856 34.8414 44.748C34.6374 44.628 34.2414 44.568 33.6534 44.568C33.0414 44.568 32.5794 44.634 32.2674 44.766C31.9674 44.898 31.7334 45.072 31.5654 45.288ZM43.8826 54.234C43.5586 54.234 43.1566 54.198 42.6766 54.126C42.2086 54.066 41.7346 53.988 41.2546 53.892C40.7746 53.784 40.3606 53.67 40.0126 53.55V40.446H41.5066V43.686C41.8066 43.614 42.2026 43.53 42.6946 43.434C43.1866 43.338 43.6966 43.29 44.2246 43.29C45.2806 43.29 46.0906 43.71 46.6546 44.55C47.2186 45.378 47.5006 46.722 47.5006 48.582C47.5006 49.734 47.3986 50.682 47.1946 51.426C46.9906 52.158 46.7146 52.728 46.3666 53.136C46.0186 53.544 45.6286 53.832 45.1966 54C44.7766 54.156 44.3386 54.234 43.8826 54.234ZM43.8826 52.902C44.2066 52.902 44.4586 52.884 44.6386 52.848C44.8306 52.8 44.9866 52.722 45.1066 52.614C45.2146 52.506 45.3346 52.314 45.4666 52.038C45.5986 51.762 45.7066 51.33 45.7906 50.742C45.8866 50.142 45.9346 49.326 45.9346 48.294C45.9346 47.262 45.8806 46.476 45.7726 45.936C45.6766 45.396 45.5386 45.054 45.3586 44.91C45.1066 44.718 44.6806 44.622 44.0806 44.622C43.4686 44.622 42.9406 44.682 42.4966 44.802C42.0646 44.922 41.7346 45.024 41.5066 45.108V52.614C41.7106 52.662 42.0046 52.722 42.3886 52.794C42.7726 52.866 43.2706 52.902 43.8826 52.902ZM27.1595 82.252C26.3315 82.252 25.5995 82.078 24.9635 81.73C24.3395 81.37 23.8535 80.788 23.5055 79.984C23.1575 79.168 22.9835 78.088 22.9835 76.744C22.9835 75.34 23.1635 74.242 23.5235 73.45C23.8955 72.658 24.3935 72.1 25.0175 71.776C25.6415 71.44 26.3435 71.272 27.1235 71.272C27.9035 71.272 28.5635 71.428 29.1035 71.74C29.6555 72.052 30.0755 72.574 30.3635 73.306C30.6515 74.026 30.7955 74.998 30.7955 76.222V77.356H24.5675C24.5315 78.088 24.5615 78.67 24.6575 79.102C24.7535 79.522 24.8675 79.846 24.9995 80.074C25.1315 80.29 25.2455 80.44 25.3415 80.524C25.6655 80.812 26.1635 80.956 26.8355 80.956C27.3035 80.956 27.7535 80.914 28.1855 80.83C28.6175 80.734 29.0015 80.632 29.3375 80.524C29.6855 80.404 29.9495 80.32 30.1295 80.272L30.5075 81.478C30.3995 81.526 30.1895 81.616 29.8775 81.748C29.5655 81.868 29.1755 81.982 28.7075 82.09C28.2515 82.198 27.7355 82.252 27.1595 82.252ZM25.1435 73.288C24.7595 73.804 24.5675 74.758 24.5675 76.15L29.2655 76.06C29.2655 75.364 29.2355 74.77 29.1755 74.278C29.1275 73.774 29.0195 73.384 28.8515 73.108C28.7675 72.976 28.6235 72.856 28.4195 72.748C28.2155 72.628 27.8195 72.568 27.2315 72.568C26.6195 72.568 26.1575 72.634 25.8455 72.766C25.5455 72.898 25.3115 73.072 25.1435 73.288ZM33.7887 82V71.524H34.7427L34.9407 72.586H35.0487C35.0487 72.586 35.1387 72.52 35.3187 72.388C35.5107 72.256 35.7567 72.106 36.0567 71.938C36.3567 71.77 36.6747 71.62 37.0107 71.488C37.3587 71.356 37.6827 71.29 37.9827 71.29C38.1627 71.29 38.3307 71.308 38.4867 71.344C38.6427 71.368 38.7207 71.38 38.7207 71.38L38.5947 72.82C38.5947 72.82 38.5167 72.814 38.3607 72.802C38.2047 72.79 38.0607 72.784 37.9287 72.784C37.5927 72.784 37.2507 72.832 36.9027 72.928C36.5667 73.024 36.2547 73.144 35.9667 73.288C35.6787 73.432 35.4507 73.57 35.2827 73.702V82H33.7887ZM42.1026 82L39.0606 71.524H40.6626L43.0206 80.722H43.1286L45.4686 71.524H47.0706L44.0466 82H42.1026ZM49.08 69.742V68.212H50.916V69.742H49.08ZM49.242 82V71.524H50.736V82H49.242ZM58.0426 82.234C57.2266 82.234 56.5066 82.048 55.8826 81.676C55.2586 81.304 54.7726 80.716 54.4246 79.912C54.0766 79.096 53.9026 78.034 53.9026 76.726C53.9026 75.658 54.0166 74.77 54.2446 74.062C54.4846 73.354 54.8086 72.802 55.2166 72.406C55.6246 71.998 56.1046 71.71 56.6566 71.542C57.2086 71.374 57.7966 71.29 58.4206 71.29C58.8766 71.29 59.3386 71.32 59.8066 71.38C60.2866 71.44 60.6766 71.506 60.9766 71.578L60.7966 72.838C60.5686 72.814 60.2086 72.772 59.7166 72.712C59.2246 72.64 58.6966 72.604 58.1326 72.604C57.6886 72.604 57.3106 72.64 56.9986 72.712C56.6986 72.784 56.4646 72.904 56.2966 73.072C56.0686 73.324 55.8706 73.786 55.7026 74.458C55.5466 75.118 55.4686 75.91 55.4686 76.834C55.4686 77.686 55.5346 78.376 55.6666 78.904C55.7986 79.42 55.9546 79.816 56.1346 80.092C56.3146 80.356 56.4766 80.542 56.6206 80.65C56.7166 80.722 56.8426 80.788 56.9986 80.848C57.1666 80.908 57.4006 80.938 57.7006 80.938C58.0486 80.938 58.4026 80.896 58.7626 80.812C59.1226 80.728 59.4526 80.632 59.7526 80.524C60.0526 80.416 60.2926 80.32 60.4726 80.236C60.6646 80.152 60.7606 80.11 60.7606 80.11L61.2286 81.28C61.2286 81.28 61.0966 81.358 60.8326 81.514C60.5686 81.67 60.1966 81.832 59.7166 82C59.2366 82.156 58.6786 82.234 58.0426 82.234ZM67.431 82.252C66.603 82.252 65.871 82.078 65.235 81.73C64.611 81.37 64.125 80.788 63.777 79.984C63.429 79.168 63.255 78.088 63.255 76.744C63.255 75.34 63.435 74.242 63.795 73.45C64.167 72.658 64.665 72.1 65.289 71.776C65.913 71.44 66.615 71.272 67.395 71.272C68.175 71.272 68.835 71.428 69.375 71.74C69.927 72.052 70.347 72.574 70.635 73.306C70.923 74.026 71.067 74.998 71.067 76.222V77.356H64.839C64.803 78.088 64.833 78.67 64.929 79.102C65.025 79.522 65.139 79.846 65.271 80.074C65.403 80.29 65.517 80.44 65.613 80.524C65.937 80.812 66.435 80.956 67.107 80.956C67.575 80.956 68.025 80.914 68.457 80.83C68.889 80.734 69.273 80.632 69.609 80.524C69.957 80.404 70.221 80.32 70.401 80.272L70.779 81.478C70.671 81.526 70.461 81.616 70.149 81.748C69.837 81.868 69.447 81.982 68.979 82.09C68.523 82.198 68.007 82.252 67.431 82.252ZM65.415 73.288C65.031 73.804 64.839 74.758 64.839 76.15L69.537 76.06C69.537 75.364 69.507 74.77 69.447 74.278C69.399 73.774 69.291 73.384 69.123 73.108C69.039 72.976 68.895 72.856 68.691 72.748C68.487 72.628 68.091 72.568 67.503 72.568C66.891 72.568 66.429 72.634 66.117 72.766C65.817 72.898 65.583 73.072 65.415 73.288ZM76.6522 82.234C76.0642 82.234 75.5062 82.162 74.9782 82.018C74.4622 81.874 74.0422 81.73 73.7182 81.586C73.3942 81.442 73.2322 81.37 73.2322 81.37L73.6102 80.092C73.6102 80.092 73.7002 80.134 73.8802 80.218C74.0722 80.302 74.3242 80.404 74.6362 80.524C74.9482 80.632 75.3022 80.728 75.6982 80.812C76.0942 80.896 76.5022 80.938 76.9222 80.938C77.1622 80.938 77.3842 80.92 77.5882 80.884C77.7922 80.836 77.9542 80.758 78.0742 80.65C78.2062 80.53 78.3262 80.35 78.4342 80.11C78.5422 79.87 78.5962 79.582 78.5962 79.246C78.5962 78.742 78.4762 78.358 78.2362 78.094C77.9962 77.83 77.6842 77.626 77.3002 77.482C76.9162 77.338 76.5082 77.206 76.0762 77.086C75.7282 76.99 75.3862 76.882 75.0502 76.762C74.7142 76.642 74.4082 76.48 74.1322 76.276C73.8682 76.072 73.6522 75.802 73.4842 75.466C73.3282 75.118 73.2502 74.674 73.2502 74.134C73.2502 73.282 73.5082 72.598 74.0242 72.082C74.5522 71.554 75.4342 71.29 76.6702 71.29C77.2942 71.29 77.8762 71.344 78.4162 71.452C78.9562 71.56 79.3342 71.65 79.5502 71.722L79.3162 72.982C79.3162 72.982 79.1722 72.952 78.8842 72.892C78.6082 72.82 78.2482 72.754 77.8042 72.694C77.3602 72.622 76.8862 72.586 76.3822 72.586C76.0222 72.586 75.7342 72.61 75.5182 72.658C75.3022 72.694 75.1402 72.754 75.0322 72.838C74.9242 72.922 74.8342 73.06 74.7622 73.252C74.6902 73.432 74.6542 73.648 74.6542 73.9C74.6542 74.404 74.7922 74.782 75.0682 75.034C75.3562 75.286 75.7162 75.478 76.1482 75.61C76.5922 75.742 77.0482 75.88 77.5162 76.024C77.9482 76.144 78.3562 76.306 78.7402 76.51C79.1362 76.714 79.4542 77.008 79.6942 77.392C79.9342 77.776 80.0542 78.298 80.0542 78.958C80.0542 79.93 79.7602 80.722 79.1722 81.334C78.5962 81.934 77.7562 82.234 76.6522 82.234Z" fill="white"/>
<path d="M11.312 54L8.816 37.128H12.608L13.832 50.136H13.976L15.848 41.136H20.264L22.136 50.136H22.28L23.504 37.128H27.296L24.8 54H20.096L18.128 44.712H17.984L16.016 54H11.312Z" fill="#F3CBA8"/>
<path d="M14.672 82.312C13.904 82.312 13.168 82.232 12.464 82.072C11.76 81.928 11.128 81.76 10.568 81.568C10.024 81.376 9.592 81.208 9.272 81.064C8.952 80.904 8.792 80.824 8.792 80.824C8.792 80.824 8.84 80.68 8.936 80.392C9.032 80.088 9.136 79.744 9.248 79.36C9.376 78.96 9.488 78.616 9.584 78.328C9.68 78.04 9.728 77.896 9.728 77.896C9.728 77.896 9.888 77.96 10.208 78.088C10.544 78.2 10.976 78.336 11.504 78.496C12.048 78.64 12.632 78.776 13.256 78.904C13.896 79.016 14.528 79.072 15.152 79.072C15.456 79.072 15.696 79.048 15.872 79C16.048 78.936 16.184 78.872 16.28 78.808C16.456 78.696 16.592 78.52 16.688 78.28C16.8 78.04 16.856 77.696 16.856 77.248C16.856 76.848 16.696 76.512 16.376 76.24C16.056 75.952 15.64 75.688 15.128 75.448C14.616 75.208 14.064 74.952 13.472 74.68C12.96 74.44 12.448 74.192 11.936 73.936C11.424 73.664 10.96 73.344 10.544 72.976C10.128 72.608 9.792 72.152 9.536 71.608C9.28 71.048 9.152 70.36 9.152 69.544C9.152 68.664 9.368 67.872 9.8 67.168C10.248 66.448 10.912 65.88 11.792 65.464C12.688 65.032 13.792 64.816 15.104 64.816C15.68 64.816 16.256 64.856 16.832 64.936C17.424 65.016 17.968 65.112 18.464 65.224C18.96 65.32 19.352 65.408 19.64 65.488C19.944 65.568 20.096 65.608 20.096 65.608L19.496 68.608C19.496 68.608 19.336 68.584 19.016 68.536C18.712 68.472 18.312 68.408 17.816 68.344C17.32 68.264 16.792 68.2 16.232 68.152C15.672 68.088 15.144 68.056 14.648 68.056C14.344 68.056 14.104 68.08 13.928 68.128C13.752 68.176 13.6 68.24 13.472 68.32C13.36 68.4 13.248 68.528 13.136 68.704C13.04 68.864 12.992 69.144 12.992 69.544C12.992 70.008 13.232 70.4 13.712 70.72C14.208 71.04 14.8 71.36 15.488 71.68C16.032 71.936 16.6 72.2 17.192 72.472C17.8 72.744 18.368 73.072 18.896 73.456C19.424 73.84 19.856 74.328 20.192 74.92C20.528 75.496 20.696 76.224 20.696 77.104C20.696 78.144 20.44 79.056 19.928 79.84C19.432 80.624 18.728 81.232 17.816 81.664C16.92 82.096 15.872 82.312 14.672 82.312Z" fill="#A6D27B"/>
</svg>
